<?xml version="1.0" encoding="utf-8"?>
<!-- Generator: Adobe Illustrator 22.0.1, SVG Export Plug-In . SVG Version: 6.00 Build 0)  -->
<svg version="1.1" id="Layer_1" xmlns="http://www.w3.org/2000/svg" xmlns:xlink="http://www.w3.org/1999/xlink" x="0px" y="0px"
	 viewBox="0 0 92 70" style="enable-background:new 0 0 92 70;" xml:space="preserve">
<style type="text/css">
	.st0{fill:#D81F28;}
	.st1{fill:#FFFFFF;}
</style>
<g>
	<polygon class="st0" points="65.6,69.3 56.2,63.9 61.6,54.5 	"/>
	<g>
		<circle class="st1" cx="57.1" cy="1.7" r="1"/>
		<circle class="st1" cx="65.3" cy="2.7" r="1.3"/>
		<circle class="st1" cx="72.7" cy="5.8" r="1.5"/>
		<circle class="st1" cx="78.6" cy="10.4" r="1.9"/>
		<circle class="st1" cx="83.7" cy="16.6" r="2.2"/>
		<circle class="st1" cx="87.1" cy="24.8" r="2.5"/>
		<circle class="st1" cx="88.1" cy="35" r="2.9"/>
		<circle class="st1" cx="84.6" cy="46.9" r="3.5"/>
		<circle class="st1" cx="74.2" cy="58.1" r="3.8"/>
	</g>
	<g>
		<path class="st1" d="M10.2,49.7H4.6V26.6L1,27.9V22l4.4-2h4.8V49.7z"/>
		<path class="st1" d="M20.3,48.9c-1.4-0.7-2.5-1.6-3.3-2.9s-1.2-2.7-1.2-4.3v-0.5c0-1.5,0.4-2.9,1.2-4.2c0.8-1.3,1.9-2.3,3.3-3
			c-1.2-0.6-2.1-1.4-2.8-2.4c-0.7-1.1-1.1-2.2-1.1-3.4v-0.8c0-1.6,0.4-2.9,1.1-4.1c0.7-1.2,1.8-2.1,3.1-2.7c1.3-0.6,2.9-1,4.6-1
			c1.8,0,3.3,0.3,4.6,1c1.3,0.6,2.4,1.6,3.1,2.7c0.7,1.2,1.1,2.5,1.1,4.1v0.8c0,1.2-0.4,2.4-1.1,3.4c-0.7,1.1-1.7,1.9-2.9,2.4
			c1.4,0.7,2.5,1.7,3.3,3c0.8,1.3,1.2,2.7,1.2,4.2v0.5c0,1.6-0.4,3.1-1.2,4.3s-1.9,2.2-3.3,2.9c-1.4,0.7-3.1,1-5,1
			C23.4,50,21.7,49.6,20.3,48.9z M27.2,44.1c0.6-0.3,1-0.7,1.3-1.3c0.3-0.6,0.5-1.2,0.5-1.9v-0.3c0-0.7-0.2-1.3-0.5-1.8
			c-0.3-0.5-0.8-0.9-1.3-1.2c-0.6-0.3-1.2-0.4-2-0.4c-0.8,0-1.4,0.1-2,0.4c-0.6,0.3-1,0.7-1.3,1.2c-0.3,0.5-0.5,1.1-0.5,1.8v0.3
			c0,0.7,0.2,1.4,0.5,1.9c0.3,0.6,0.8,1,1.3,1.3c0.6,0.3,1.2,0.4,2,0.4C26,44.6,26.6,44.4,27.2,44.1z M26.9,31.4
			c0.5-0.3,0.9-0.7,1.1-1.2c0.3-0.5,0.4-1.1,0.4-1.8v-0.3c0-0.6-0.1-1.2-0.4-1.6c-0.3-0.5-0.6-0.8-1.1-1.1c-0.5-0.3-1-0.4-1.7-0.4
			c-0.6,0-1.2,0.1-1.7,0.4c-0.5,0.3-0.9,0.6-1.1,1.1c-0.3,0.5-0.4,1-0.4,1.7v0.3c0,0.7,0.1,1.2,0.4,1.7c0.3,0.5,0.6,0.9,1.1,1.2
			c0.5,0.3,1,0.4,1.7,0.4C25.9,31.8,26.4,31.7,26.9,31.4z"/>
		<path class="st1" d="M41.9,47.7c-1.5-1.5-2.3-3.6-2.3-6.2V28c0-2.7,0.8-4.7,2.3-6.2c1.5-1.5,3.7-2.2,6.6-2.2
			c2.9,0,5.1,0.7,6.6,2.2c1.5,1.5,2.3,3.5,2.3,6.2v13.5c0,2.7-0.8,4.7-2.3,6.2c-1.5,1.5-3.7,2.2-6.6,2.2
			C45.6,50,43.4,49.2,41.9,47.7z M51,43.4c0.5-0.8,0.8-1.9,0.8-3.3V29.5c0-1.4-0.3-2.5-0.8-3.3c-0.5-0.8-1.4-1.2-2.5-1.2
			c-1.1,0-2,0.4-2.5,1.2c-0.5,0.8-0.8,1.9-0.8,3.3v10.6c0,1.4,0.3,2.5,0.8,3.3c0.5,0.8,1.4,1.2,2.5,1.2C49.7,44.6,50.5,44.2,51,43.4
			z"/>
	</g>
	<g>
		<path class="st0" d="M61.4,24.5c-0.6-0.3-1.1-0.8-1.4-1.4c-0.3-0.6-0.5-1.4-0.5-2.3v-1.6c0-0.9,0.2-1.6,0.5-2.3
			c0.3-0.6,0.8-1.1,1.4-1.4c0.6-0.3,1.4-0.5,2.3-0.5c0.9,0,1.6,0.2,2.3,0.5c0.6,0.3,1.1,0.8,1.4,1.4c0.3,0.6,0.5,1.4,0.5,2.3v1.6
			c0,0.9-0.2,1.6-0.5,2.3c-0.3,0.6-0.8,1.1-1.4,1.4c-0.6,0.3-1.4,0.5-2.3,0.5C62.8,25,62.1,24.8,61.4,24.5z M64.9,22
			c0.3-0.3,0.4-0.7,0.4-1.3v-1.6c0-0.5-0.1-1-0.4-1.3c-0.3-0.3-0.7-0.4-1.2-0.4c-0.5,0-0.9,0.1-1.2,0.4c-0.3,0.3-0.4,0.7-0.4,1.3
			v1.6c0,0.5,0.1,1,0.4,1.3c0.3,0.3,0.7,0.5,1.2,0.5S64.6,22.4,64.9,22z"/>
	</g>
</g>
</svg>
