<?xml version="1.0" encoding="utf-8"?>
<!-- Generator: Adobe Illustrator 16.0.0, SVG Export Plug-In . SVG Version: 6.00 Build 0)  -->
<!DOCTYPE svg PUBLIC "-//W3C//DTD SVG 1.1//EN" "http://www.w3.org/Graphics/SVG/1.1/DTD/svg11.dtd">
<svg version="1.1" id="Layer_1" xmlns="http://www.w3.org/2000/svg" xmlns:xlink="http://www.w3.org/1999/xlink" x="0px" y="0px"
	 width="171px" height="45.5px" viewBox="0 0 171 45.5" enable-background="new 0 0 171 45.5" xml:space="preserve">
<g>
	<path fill="#D82129" d="M18.527,29.911c-0.702,0-1.271-0.048-1.709-0.146c-0.295-0.072-0.544-0.179-0.752-0.317
		c-0.209-0.138-0.377-0.32-0.507-0.55c-0.131-0.227-0.226-0.504-0.282-0.83c-0.056-0.326-0.084-0.704-0.084-1.135v-6.595h3.298v5.8
		c0,0.352,0.101,0.551,0.304,0.598h7.509c0.204-0.047,0.306-0.246,0.306-0.598v-5.8h3.285v6.595c0,0.431-0.028,0.809-0.086,1.135
		c-0.057,0.326-0.149,0.604-0.28,0.83c-0.132,0.229-0.297,0.412-0.501,0.55c-0.204,0.14-0.456,0.245-0.756,0.317
		c-0.433,0.099-0.999,0.146-1.698,0.146H18.527z M22.141,19.435h-3.31v-2.819h3.31V19.435z M26.134,19.435h-3.298v-2.819h3.298
		V19.435z"/>
	<path fill="#D82129" d="M34.535,29.911c-0.71,0-1.275-0.048-1.697-0.146c-0.301-0.072-0.556-0.179-0.764-0.317
		c-0.208-0.138-0.377-0.32-0.507-0.55c-0.131-0.227-0.225-0.504-0.281-0.83c-0.056-0.326-0.085-0.704-0.085-1.135v-9.401h3.297
		v8.606c0,0.352,0.102,0.551,0.306,0.598h0.854v3.176L34.535,29.911L34.535,29.911z"/>
	<path fill="#D82129" d="M46.855,26.736h1.147v3.175H35.523v-3.175h1.111v-3.454c0-0.44,0.032-0.825,0.098-1.154
		c0.064-0.331,0.169-0.608,0.312-0.837c0.142-0.228,0.325-0.409,0.55-0.543c0.223-0.134,0.489-0.23,0.798-0.288
		c0.189-0.039,0.412-0.071,0.673-0.091c0.262-0.02,0.562-0.03,0.903-0.03h3.554c0.302,0,0.574,0.011,0.817,0.03
		c0.244,0.02,0.468,0.052,0.673,0.091c0.325,0.058,0.605,0.152,0.842,0.282c0.237,0.13,0.427,0.307,0.574,0.53
		c0.146,0.225,0.254,0.501,0.323,0.831s0.104,0.723,0.104,1.179V26.736z M41.458,19.435h-3.309v-2.819h3.309V19.435z M43.547,24.111
		c0-0.342-0.103-0.549-0.307-0.622h-2.82c-0.318,0.024-0.476,0.23-0.476,0.622v2.052c0,0.204,0.016,0.345,0.048,0.422
		c0.033,0.076,0.106,0.129,0.22,0.151h2.907c0.219-0.022,0.341-0.077,0.365-0.157c0.017-0.041,0.031-0.095,0.044-0.154
		c0.012-0.059,0.019-0.147,0.019-0.262V24.111z M45.451,19.435h-3.31v-2.819h3.31V19.435z"/>
	<path fill="#D82129" d="M53.767,26.139c0,0.342,0.105,0.551,0.318,0.623h1.928v3.149h-0.964c-0.961,0-1.571-0.313-1.832-0.938
		c-0.179,0.455-0.603,0.744-1.271,0.866c-0.113,0.032-0.294,0.052-0.543,0.062c-0.248,0.009-0.567,0.012-0.959,0.012h-2.625v-3.148
		h0.257c0.13,0,0.281-0.002,0.451-0.007c0.171-0.003,0.349-0.008,0.531-0.012c0.184-0.005,0.354-0.009,0.514-0.015
		c0.158-0.004,0.287-0.006,0.385-0.006c0.105,0,0.162-0.004,0.17-0.011c0.221-0.073,0.33-0.274,0.33-0.601v-5.774h3.31V26.139z
		 M51.654,33.636h-3.31v-2.819h3.31V33.636z M55.659,33.636h-3.31v-2.819h3.31V33.636z"/>
	<path fill="#D82129" d="M67.223,26.736h1.147v3.175H55.892v-3.175h1.11v-3.454c0-0.44,0.032-0.825,0.098-1.154
		c0.065-0.331,0.17-0.608,0.311-0.837c0.143-0.228,0.326-0.409,0.551-0.543c0.223-0.134,0.49-0.23,0.8-0.288
		c0.188-0.039,0.411-0.071,0.672-0.091c0.26-0.02,0.561-0.03,0.902-0.03h3.554c0.301,0,0.574,0.011,0.818,0.03
		s0.468,0.052,0.671,0.091c0.326,0.058,0.607,0.152,0.843,0.282c0.237,0.13,0.428,0.307,0.574,0.53
		c0.147,0.225,0.255,0.501,0.323,0.831c0.069,0.33,0.104,0.723,0.104,1.179V26.736z M61.825,19.435h-3.309v-2.819h3.309V19.435z
		 M63.914,24.111c0-0.342-0.103-0.549-0.306-0.622h-2.821c-0.316,0.024-0.476,0.23-0.476,0.622v2.052
		c0,0.204,0.015,0.345,0.048,0.422c0.033,0.076,0.105,0.129,0.221,0.151h2.906c0.22-0.022,0.342-0.077,0.366-0.157
		c0.016-0.041,0.03-0.095,0.042-0.154c0.014-0.059,0.02-0.147,0.02-0.262V24.111z M65.818,19.435h-3.31v-2.819h3.31V19.435z"/>
	<path fill="#D82129" d="M80.13,26.736h1.11v3.175H68.138v-3.175h8.683l-0.61-2.368c-0.082-0.375-0.244-0.627-0.489-0.757
		c-0.106-0.065-0.334-0.098-0.684-0.098H69.52v-3.188h5.749c0.334,0,0.634,0.01,0.899,0.03c0.264,0.02,0.49,0.05,0.677,0.091
		c0.325,0.058,0.616,0.151,0.872,0.282c0.257,0.129,0.482,0.309,0.678,0.536c0.196,0.229,0.365,0.507,0.508,0.837
		c0.141,0.33,0.261,0.719,0.36,1.166L80.13,26.736z"/>
	<path fill="#D82129" d="M81.057,29.911v-3.175h4.506c0.204-0.047,0.306-0.247,0.306-0.6v-5.799h3.297v6.594
		c0,0.432-0.027,0.81-0.086,1.135c-0.057,0.326-0.15,0.604-0.281,0.832c-0.13,0.229-0.298,0.412-0.507,0.549
		c-0.207,0.14-0.457,0.244-0.75,0.316c-0.44,0.1-1.009,0.146-1.709,0.146L81.057,29.911L81.057,29.911z M85.16,19.435h-3.31v-2.819
		h3.31V19.435z M89.165,19.435h-3.309v-2.819h3.309V19.435z"/>
</g>
<path fill="#011A4E" d="M105.25,36.561h-7.109V14.721h-1.738V9.047h8.849L105.25,36.561L105.25,36.561z"/>
<path fill="#011A4E" d="M131.775,25.842v4.153c0,3.6-1.176,5.696-3.526,6.294c-0.791,0.181-2.003,0.271-3.636,0.271h-8.4
	c-1.648,0-2.878-0.092-3.686-0.271c-1.244-0.344-2.143-0.994-2.682-1.953c-0.55-0.961-0.82-2.406-0.82-4.341v-4.153
	c0-0.706,0.221-1.355,0.658-1.951c0.439-0.598,0.896-0.969,1.369-1.113c-0.474-0.182-0.912-0.573-1.316-1.169
	c-0.473-0.632-0.711-1.267-0.711-1.899v-4.15c0-1.938,0.264-3.385,0.789-4.343c0.528-0.957,1.435-1.611,2.713-1.953
	c0.949-0.217,2.178-0.325,3.686-0.325h8.4c1.492,0,2.703,0.108,3.636,0.325c1.28,0.342,2.188,0.996,2.726,1.953
	c0.533,0.958,0.803,2.404,0.803,4.343v4.149c0,1.647-0.623,2.669-1.869,3.068C131.152,23.264,131.775,24.287,131.775,25.842z
	 M124.643,17.893v-0.625c0-0.741-0.229-1.166-0.686-1.276h-6.82c-0.65,0-0.975,0.428-0.975,1.276v0.625
	c0,0.776,0.229,1.239,0.688,1.382h6.817c0.401,0,0.667-0.087,0.789-0.27C124.578,18.824,124.643,18.453,124.643,17.893z
	 M124.643,28.229v-0.623c0-0.922-0.334-1.381-1.002-1.381h-6.451c-0.51,0-0.808,0.158-0.896,0.484
	c-0.086,0.202-0.131,0.708-0.131,1.52c0,0.778,0.228,1.222,0.687,1.33h7.159C124.43,29.449,124.643,29.007,124.643,28.229z"/>
<path fill="#011A4E" d="M157.682,29.995c0,2.006-0.287,3.489-0.869,4.45c-0.578,0.955-1.555,1.589-2.922,1.897
	c-0.772,0.142-1.906,0.218-3.396,0.218h-8.742c-1.475,0-2.536-0.056-3.186-0.164c-1.404-0.306-2.418-0.941-3.041-1.899
	c-0.625-0.959-0.937-2.458-0.937-4.502V15.613c0-2.081,0.304-3.593,0.909-4.532s1.629-1.546,3.066-1.817
	c0.824-0.146,1.887-0.217,3.187-0.217h8.742c1.491,0,2.624,0.071,3.396,0.217c1.368,0.306,2.346,0.939,2.922,1.898
	c0.582,0.959,0.871,2.442,0.871,4.451V29.995L157.682,29.995z M150.57,27.714v-9.821c0-0.851-0.209-1.411-0.631-1.685
	c-0.229-0.106-0.709-0.161-1.446-0.161h-4.688c-0.718,0-1.193,0.055-1.421,0.161c-0.422,0.273-0.633,0.834-0.633,1.685v9.821
	c0,0.851,0.211,1.41,0.633,1.685c0.228,0.107,0.703,0.16,1.421,0.16h4.688c0.737,0,1.217-0.053,1.446-0.16
	C150.361,29.124,150.57,28.564,150.57,27.714z"/>
<path fill="#D82129" d="M168.654,14.79c0,0.559-0.079,0.974-0.241,1.241c-0.163,0.267-0.435,0.443-0.817,0.528
	c-0.214,0.042-0.531,0.062-0.947,0.062h-2.438c-0.412,0-0.708-0.016-0.888-0.045c-0.393-0.087-0.678-0.263-0.85-0.529
	c-0.175-0.269-0.262-0.688-0.262-1.257v-4.015c0-0.58,0.085-1,0.255-1.264c0.169-0.262,0.453-0.433,0.854-0.508
	c0.23-0.039,0.527-0.061,0.889-0.061h2.438c0.418,0,0.734,0.021,0.949,0.061c0.383,0.086,0.653,0.262,0.816,0.531
	c0.162,0.268,0.242,0.681,0.242,1.24V14.79L168.654,14.79z M166.672,14.151v-2.739c0-0.237-0.059-0.394-0.177-0.469
	c-0.063-0.032-0.196-0.045-0.402-0.045h-1.31c-0.203,0-0.335,0.013-0.396,0.045c-0.117,0.075-0.179,0.231-0.179,0.469v2.739
	c0,0.239,0.062,0.396,0.179,0.472c0.062,0.029,0.192,0.043,0.396,0.043h1.31c0.206,0,0.339-0.014,0.402-0.043
	C166.613,14.547,166.672,14.391,166.672,14.151z"/>
<polyline fill="none" stroke="#011A4E" stroke-width="2.9748" stroke-miterlimit="10" points="88.115,37.051 88.115,42.154 
	2.345,42.154 2.345,3.346 88.115,3.346 88.115,7.743 "/>
</svg>
