<?xml version="1.0" encoding="UTF-8"?>
<!DOCTYPE svg PUBLIC "-//W3C//DTD SVG 1.1//EN" "http://www.w3.org/Graphics/SVG/1.1/DTD/svg11.dtd">
<!-- Creator: CorelDRAW X7 -->
<svg xmlns="http://www.w3.org/2000/svg" xml:space="preserve" width="5.4186mm" height="5.4186mm" version="1.1" style="shape-rendering:geometricPrecision; text-rendering:geometricPrecision; image-rendering:optimizeQuality; fill-rule:evenodd; clip-rule:evenodd"
viewBox="0 0 542 542"
 xmlns:xlink="http://www.w3.org/1999/xlink">
 <defs>
  <style type="text/css">
   <![CDATA[
    .str0 {stroke:#2B2A29;stroke-width:20;stroke-dasharray:20.000000 20.000000}
    .fil1 {fill:none}
    .fil2 {fill:#2B2A29}
    .fil0 {fill:#E31E24}
    .fil3 {fill:#FEFEFE;fill-rule:nonzero}
   ]]>
  </style>
 </defs>
 <g id="Слой_x0020_1">
  <metadata id="CorelCorpID_0Corel-Layer"/>
  <rect class="fil0" width="542" height="542" rx="34" ry="32"/>
  <line class="fil1 str0" x1="308" y1="39" x2="308" y2= "315" />
  <g id="_289021275664">
   <path class="fil2" d="M216 466c0,-6 1,-10 4,-14 4,-5 12,-6 17,-3 15,9 10,33 -6,33 -9,1 -15,-8 -15,-16zm-16 1l0 -5c0,-6 2,-12 5,-18 3,-4 7,-8 12,-11 3,-2 8,-4 12,-4 8,0 13,2 19,6 3,3 5,6 7,6 2,0 6,-9 8,-12 3,-6 7,-13 10,-20l7 -13c1,-1 1,-2 2,-3 0,-1 1,-2 2,-3l12 -18 85 -113c1,-2 3,-5 4,-6 2,1 5,5 6,7 4,7 4,15 2,22 0,4 -1,8 -2,11l-4 9c-4,8 -13,20 -18,28l-46 65c-3,3 -12,12 -16,16 -2,2 -11,5 -19,14 -6,5 -7,7 -12,14 -5,9 -13,27 -16,36 -1,4 -2,7 -4,10 -1,2 -2,3 -4,5 -1,1 -1,1 -1,2 -2,1 -3,2 -4,3 -6,4 -10,5 -18,5 -9,0 -19,-7 -24,-15 -3,-5 -5,-11 -5,-18zm97 -81c0,-9 10,-11 15,-7 6,6 1,16 -6,15 -5,0 -9,-4 -9,-8z"/>
   <path class="fil2" d="M217 273c0,10 3,18 6,27 3,6 13,20 16,26l35 50c1,1 2,2 3,3 0,1 1,2 2,3l10 -15c2,-3 4,-5 6,-8 1,-1 2,-2 2,-4l3 -3c0,-2 -62,-84 -69,-93 -1,-1 -1,-2 -2,-3 -1,-1 -2,-2 -3,-3 -2,1 -5,6 -6,8 -2,3 -3,8 -3,12z"/>
   <path class="fil2" d="M365 466l0 -3c0,-8 10,-20 22,-14 7,4 11,14 8,22 -4,11 -15,16 -25,7 -2,-3 -5,-8 -5,-12zm47 -4l0 5c-1,5 -2,9 -3,13 -3,7 -8,13 -15,16 -3,3 -7,4 -11,4l-4 0c-5,0 -10,-2 -14,-5 -6,-4 -10,-9 -13,-15 0,-3 -1,-5 -2,-7 -4,-13 -11,-29 -18,-38 -2,-3 -4,-6 -6,-8 -1,-1 -2,-2 -2,-3l-10 -8c1,-1 13,-14 16,-16 1,-2 1,-2 2,-3l6 11c1,2 1,2 2,3l10 20c7,14 7,10 11,6 2,-1 3,-3 5,-4 6,-3 10,-4 16,-4 12,0 22,10 27,21 1,4 2,8 3,12z"/>
  </g>
  <path class="fil3" d="M35 196l19 0 0 22c0,2 1,3 4,3 2,0 3,-1 3,-3l0 -11c0,-4 -2,-8 -6,-13 -9,-8 -15,-14 -17,-17 -2,-3 -3,-6 -3,-10l0 -11c0,-12 8,-18 24,-18 15,0 22,5 22,17l0 16 -19 0 0 -17c0,-2 -1,-3 -4,-3 -2,0 -3,2 -3,5l0 7c0,3 2,7 7,12 9,8 15,14 17,18 2,3 4,7 4,11l0 12c0,13 -9,19 -25,19 -16,0 -23,-6 -23,-17l0 -22zm97 38l-19 0 0 -62c0,-3 -2,-4 -4,-4 -2,0 -3,1 -3,4l0 62 -19 0 0 -95 19 0 0 20c2,-2 6,-3 12,-3 4,0 7,1 9,3 3,2 5,5 5,8l0 67zm4 -15l0 -46c0,-11 7,-17 22,-17 6,0 11,2 16,4 4,3 6,7 6,12l0 48c0,10 -7,16 -22,16 -15,0 -22,-6 -22,-17zm25 1l0 -48c0,-2 -1,-4 -3,-4 -2,0 -3,2 -3,4l0 48c0,2 1,3 3,3 2,0 3,-1 3,-3zm68 -31l-19 0 0 -17c0,-2 -1,-3 -3,-3 -2,0 -3,1 -3,3l0 62 -19 0 0 -77 19 0 0 2c2,-2 6,-3 11,-3 4,0 7,1 10,3 3,2 4,5 4,8l0 22zm42 45l-13 0c-8,0 -13,-1 -15,-3 -2,-3 -2,-8 -2,-15l0 -48 -9 0 0 -11 9 0 0 -16 19 0 0 16 10 0 0 11 -10 0 0 47c0,3 0,4 2,5 1,1 4,1 9,1l0 13zm116 0l-39 0 0 -95 21 0 0 83 18 0 0 12zm22 -81l-19 0 0 -14 19 0 0 14zm0 81l-19 0 0 -77 19 0 0 77zm49 0l-19 0 0 -62c0,-2 -2,-3 -4,-3 -2,0 -3,1 -3,3l0 62 -19 0 0 -77 19 0 0 2c3,-2 6,-3 12,-3 3,0 6,1 9,3 3,2 5,5 5,8l0 67zm57 0l-22 0 -12 -27 0 27 -19 0 0 -95 19 0 0 43 10 -25 19 0 -13 34 18 43z"/>
 </g>
</svg>
