<?xml version="1.0" encoding="utf-8"?>
<!-- Generator: Adobe Illustrator 16.0.0, SVG Export Plug-In . SVG Version: 6.00 Build 0)  -->
<!DOCTYPE svg PUBLIC "-//W3C//DTD SVG 1.1//EN" "http://www.w3.org/Graphics/SVG/1.1/DTD/svg11.dtd">
<svg version="1.1" id="Layer_1" xmlns="http://www.w3.org/2000/svg" xmlns:xlink="http://www.w3.org/1999/xlink" x="0px" y="0px"
	 width="420px" height="194px" viewBox="0 0 420 194" enable-background="new 0 0 420 194" xml:space="preserve">
<g>
	<path fill-rule="evenodd" clip-rule="evenodd" fill="#962720" d="M312.649,9.227c0.028,5.028,2.752,1.666,9.951,3.613
		c4.111,1.112,5.883,2.476,6.805,6.392c1.451,6.166-0.503,20.116,1.076,25.137c4.2,0.415,21.507,3.5,23.181,3.272
		c-0.119-7.711-0.402-23.341,0.7-28.853c2.171-10.862,14.397-3.034,14.137-9.351c-3.527-1.578-21.62-0.329-27.253-0.344
		C337.162,9.083,314.368,8.211,312.649,9.227L312.649,9.227z M192.891,86.735c64.807-28.509,120.408-52.402,191.277-20.29
		c6.77,3.067,27.864,13.587,31.402,17.65c-3.907-0.93-10.453-4.064-14.529-5.614c-12.512-4.755-34.53-12.078-47.375-12.945
		c-0.351,14.528-0.184,29.821,0.081,44.371c0.303,16.705-0.613,21.74,10.508,22.753c5.728,0.521,7.451-0.748,8.763,1.973
		c-0.71,1.663-0.604,1.608-2.776,1.848c-0.927,0.103-2.737,0.016-3.744,0.002l-22.095-0.516c-5.898-0.097-25.529,1.94-29.195-0.506
		c-0.196-5.532,9.305,0.486,12.722-6.252c3.319-6.545,2.502-53.601,1.931-55.023c-36.116-5.557-68.721-0.837-101.344,14.01
		c-30.649,13.948-74.695,34.314-108.455,36.772c-2.676,3.706-3.782,9.609-7.648,11.282c-4.544-0.552-6.318-7.074-8.562-10.338
		c-8.504-0.123-16.395-0.602-24.533-1.925l-20.866-4.419c-0.398,5.25-1.864,10.061,2.466,11.844
		c6.552,2.698,10.53-0.363,11.184,3.746c-2.466,2.817-17.028,0.881-21.236,0.807c-4.321-0.076-18.561,1.509-21.386-0.28
		c-0.857-5.82,8.139,0.238,12.031-6.212c1.987-3.294,3.489-10.486,3.466-14.83c-1.208-0.816-16.069-7.18-21.277-10.175
		c-5.157-2.966-16.827-9.445-19.27-12.443l28.717,11.378C94.498,124.991,137.523,111.091,192.891,86.735z"/>
	<path fill-rule="evenodd" clip-rule="evenodd" fill="#00339A" d="M119.759,133.754c9.164,4.191,33.55,3.467,44.627,1.816
		c7.408-1.104,32.452,1.504,41.709,0.914c2.989-0.19,3.724-0.337,3.65-2.912c-4.812-1.873-15.783-0.354-16.702-5.779
		c8.198-3.633,15.124-6.263,22.776-10.192c4.53-2.327,18.52-10.324,22.634-11.264c-0.123,6.014,0.088,15.509-1.375,20.901
		c-2.731,10.074-14.047,1.909-13.051,8.445c3.015,1.758,23.649,0.169,28.842,0.293c4.91,0.116,9.82,0.304,14.729,0.4
		c5.573,0.11,12.438,1.214,13.867-1.745c-1.298-2.344-2.893-1.729-5.992-1.82c-8.349-0.246-11.508-1.033-12.451-9.235
		c-0.94-8.17-1.361-20.837-0.868-29.065c4.56-1.029,15.841-6.122,27.12-8.709c5.368-1.231,9.34-1.865,14.915-2.846
		c4.123-0.725,12.956-1.07,15.974-1.995c-4.87-2.302-23.234-1.663-29.43-1.124c-44.635,3.883-75.332,30.794-115.483,44.987
		C155.832,131.689,141.626,132.673,119.759,133.754z"/>
	<path fill-rule="evenodd" clip-rule="evenodd" fill="#00339A" d="M93.353,106.307c8.306,0.164,15.615-0.931,23.632-1.912
		c-7.159-14.705-14.956-32.869-23.065-46.674c-1.234-3.621-4.809-10.172-6.644-13.663L73.678,16.634
		c-2.062-4.038-4.22-11.464-9.135-11.569c-3.273,1.843-3.09,5.708-3.758,10.068c-1.761,11.5-13.245,80.979-12.959,84.779
		c2.035,0.835,10.75,2.974,12.786,2.884c1.107-7.351,4.998-46.049,6.561-49.26l9.299,18.662
		C81.125,79.712,90.532,98.937,93.353,106.307L93.353,106.307z M144.344,75.197l6.422-12.833l5.647-10.95
		c1.7,1.24,5.757,38.073,5.954,39.696c6.479-1.386,14.858-6.273,21.22-8.461c-0.024-5.415-1.958-14.377-2.813-20.072l-7.572-49.716
		c-1.41-9.637-5.734-10.139-9.136-3.356c-1.083,2.158-2.21,4.354-3.362,6.67c-2.294,4.618-3.894,8.256-6.392,13.069
		c-11.452,22.073-27.619,52.609-36.666,74.83c3.399-0.106,8.186-1.324,11.558-2.1c3.03-0.697,2.48-0.6,3.658-3.162
		C135.308,93.487,143.682,78.407,144.344,75.197z"/>
	<path fill-rule="evenodd" clip-rule="evenodd" fill="#00339A" d="M221.021,9.612c-0.194,4.553,5.082,1.037,12.036,3.847
		c5.062,2.046,5.283,5.353,5.393,11.209c0.209,11.308,0.005,22.64,0.136,33.947l23.348-7.531c0.429-9.84-0.591-22.493,0.693-31.335
		c1.804-12.407,14.742-3.756,14.293-10.236c-3.421-1.879-22.162-0.394-27.732-0.423C244.32,9.065,223.683,7.566,221.021,9.612z"/>
	<g>
		<path fill="#808080" d="M30.012,161.309c-0.345-0.344-0.345-1.379,0.129-1.508c1.465,0.086,3.318,0.129,5.43,0.129
			c1.422,0,2.671,0,4.223-0.129c0,2.672,1.508,5.301,3.404,9.351l2.844,6.076c0.388,0.861,1.939,3.576,2.542,4.653
			c0.56-1.034,1.25-2.369,2.413-4.912l2.198-4.74c2.068-4.438,3.146-6.722,4.094-10.428c1.982,0.173,2.973,0.129,4.266,0.129
			c1.422,0,3.404-0.043,4.956-0.129c0.474,0.259,0.474,1.077,0.129,1.508l-1.25,0.216c-1.767,0.302-2.628,0.819-2.628,3.103
			c0,8.877,0.086,13.53,0.345,18.96c0.086,1.982,0.258,3.017,1.939,3.231l1.379,0.173c0.345,0.345,0.345,1.336-0.086,1.508
			c-1.982-0.086-3.835-0.129-5.946-0.129c-1.939,0-4.309,0.043-6.377,0.129c-0.517-0.215-0.56-1.206-0.129-1.508l1.293-0.173
			c1.982-0.258,1.982-0.775,1.982-3.403l-0.086-11.204v-4.912h-0.086c-3.188,6.895-6.636,14.091-9.48,21.373
			c-0.215,0.172-0.517,0.302-0.862,0.302c-0.388,0-0.862-0.087-1.12-0.259c-1.681-5.344-6.981-16.029-9.394-21.632h-0.086
			c-0.172,2.801-0.215,4.697-0.258,6.938c-0.043,2.802-0.086,7.11-0.086,9.696c0,2.154,0.259,2.758,1.982,3.016l1.681,0.259
			c0.345,0.302,0.258,1.293-0.086,1.508c-1.594-0.086-3.447-0.129-5.084-0.129c-1.379,0-3.017,0.043-4.74,0.129
			c-0.56-0.172-0.56-1.292-0.172-1.508l0.776-0.129c2.197-0.388,2.456-0.646,2.715-3.318c0.215-2.111,0.345-5.86,0.603-9.954
			c0.172-2.887,0.258-6.377,0.258-8.704c0-2.456-0.948-3.103-2.671-3.404L30.012,161.309z"/>
		<path fill="#808080" d="M76.382,183.371c0,3.017,0.173,3.404,1.595,3.534l0.818,0.086c0.345,0.259,0.345,1.25-0.043,1.508
			c-1.508-0.086-3.188-0.129-5.171-0.129c-1.939,0-3.749,0.043-5.171,0.129c-0.388-0.258-0.388-1.249-0.043-1.508l0.819-0.086
			c1.422-0.13,1.594-0.518,1.594-3.534v-6.506c0-1.724,0-2.241-0.819-2.758l-0.603-0.389c-0.302-0.258-0.302-1.033,0-1.292
			c2.025-0.561,5.084-1.724,6.377-2.499c0.345,0,0.603,0.129,0.775,0.388c-0.086,1.292-0.129,3.188-0.129,5.128V183.371z
			 M76.727,163.895c0,2.068-1.594,3.146-3.231,3.146c-1.896,0-3.017-1.293-3.017-3.06c0-1.896,1.508-3.146,3.232-3.146
			C75.521,160.835,76.727,162.171,76.727,163.895z"/>
		<path fill="#808080" d="M83.105,176.951c0-1.724,0-2.241-0.819-2.758l-0.603-0.388c-0.302-0.259-0.302-1.034,0-1.293
			c1.982-0.561,4.955-1.724,6.291-2.585c0.345,0,0.604,0.129,0.776,0.388c-0.086,0.861-0.172,1.465-0.172,1.853
			c0,0.302,0.086,0.431,0.431,0.518c1.164-0.733,2.413-2.155,4.223-2.155c1.164,0,2.37,0.905,2.37,2.543
			c0,1.981-1.379,2.801-2.758,2.801c-0.603,0-1.12-0.259-1.68-0.776c-0.991-0.818-1.379-0.861-1.638-0.861
			c-0.603,0-0.819,0.948-0.819,2.586v6.549c0,3.017,0.173,3.361,1.595,3.491l1.379,0.129c0.345,0.259,0.345,1.25-0.043,1.508
			c-2.068-0.086-3.792-0.129-5.817-0.129c-1.767,0-3.663,0.043-5.085,0.129c-0.388-0.258-0.388-1.249-0.043-1.508l0.819-0.086
			c1.422-0.13,1.594-0.518,1.594-3.534V176.951z"/>
		<path fill="#808080" d="M111.461,182.467c-0.172,2.93,1.077,3.706,1.939,3.706c0.517,0,0.948-0.13,1.637-0.518
			c0.388,0.086,0.646,0.604,0.518,0.991c-0.518,0.689-2.542,2.327-4.999,2.327c-1.508,0-2.456-0.518-3.619-1.509
			c-0.302-0.258-0.474-0.345-0.689-0.345c-0.216,0-0.474,0.173-0.905,0.475c-0.775,0.56-2.068,1.379-3.663,1.379
			c-2.5,0-4.826-1.509-4.826-4.524c0-2.198,1.336-3.534,4.481-4.481c1.637-0.518,2.844-0.862,4.05-1.207
			c0.776-0.216,0.991-0.517,1.034-0.861c0.043-0.475,0.086-0.948,0.086-1.466c0-1.637-0.646-3.705-2.5-3.705
			c-1.034,0-1.939,0.603-2.24,2.456c-0.086,0.689-0.345,1.077-0.733,1.379c-0.646,0.474-2.327,0.991-3.103,0.991
			c-0.732,0-0.991-0.475-0.991-1.078c0-1.12,1.034-2.499,2.068-3.317c1.465-1.163,4.18-2.629,7.239-2.629
			c3.619,0,5.731,1.81,5.516,6.248L111.461,182.467z M106.29,181.347c0.043-0.689,0-0.819-0.302-0.776
			c-1.939,0.259-3.62,0.991-3.62,3.017c0,1.379,0.991,2.586,2.198,2.586c1.336,0,1.594-0.776,1.637-2.112L106.29,181.347z"/>
		<path fill="#808080" d="M131.198,171.263c0.561,0.475,0.905,1.077,0.905,2.241c0,1.293-0.604,2.456-1.121,2.456
			c-0.215,0-0.603-0.086-0.689-0.216c-1.207-1.724-2.887-3.231-4.438-3.231c-2.801,0-4.31,3.188-4.31,6.162
			c0,3.404,2.198,6.852,6.162,6.852c1.595,0,2.887-0.518,3.835-2.111c0.518-0.044,1.121,0.258,1.121,0.947
			c-0.948,2.155-3.534,4.611-7.627,4.611c-5.43,0-9.135-3.62-9.135-8.704c0-6.119,4.955-9.739,10.772-9.739
			C128.139,170.53,130.035,170.832,131.198,171.263z"/>
		<path fill="#808080" d="M135.768,164.412c0-1.725,0-2.198-0.862-2.715l-0.732-0.432c-0.302-0.258-0.302-1.034,0-1.292
			c1.853-0.432,4.438-1.466,6.593-2.413c0.258,0,0.56,0.086,0.732,0.301c-0.086,1.768-0.129,3.577-0.129,6.292v19.218
			c0,3.017,0.173,3.361,1.681,3.534l0.732,0.086c0.345,0.259,0.345,1.25-0.043,1.508c-1.422-0.086-3.231-0.129-5.171-0.129
			c-1.853,0-3.663,0.043-5.171,0.129c-0.388-0.258-0.388-1.249-0.043-1.508l0.819-0.086c1.422-0.13,1.594-0.518,1.594-3.534V164.412
			z"/>
		<path fill="#808080" d="M152.23,178.157c-0.991,0-1.077,0.087-1.077,0.776c0,3.231,2.068,6.377,6.076,6.377
			c1.207,0,2.844-0.259,4.007-2.24c0.474-0.087,1.121,0.258,1.121,0.99c-1.767,3.663-4.956,4.913-7.541,4.913
			c-5.817,0-8.963-4.094-8.963-8.791c0-5.429,3.921-9.652,9.308-9.652c4.481,0,6.895,2.888,6.895,6.205
			c0,0.819-0.215,1.422-1.551,1.422H152.23z M155.074,176.262c0.603,0,1.292-0.086,1.767-0.388c0.215-0.13,0.302-0.561,0.302-0.991
			c0-1.422-0.819-2.37-2.284-2.37c-1.81,0-3.361,1.724-3.361,3.103c0,0.604,0.603,0.646,1.982,0.646H155.074z"/>
		<path fill="#808080" d="M185.801,174.71c-1.767,0-1.81,0.044-1.81,1.25v6.205c0,4.008,0.259,4.396,2.198,4.653l1.379,0.173
			c0.345,0.259,0.345,1.25,0,1.508c-2.456-0.086-4.611-0.129-6.55-0.129c-2.068,0-4.223,0.043-6.42,0.129
			c-0.345-0.258-0.345-1.249,0-1.508l1.034-0.129c1.982-0.259,2.198-0.689,2.198-4.697v-16.03c0-4.007-0.216-4.438-2.198-4.696
			l-1.034-0.13c-0.345-0.258-0.345-1.249,0-1.508c2.111,0.086,4.352,0.129,6.42,0.129c1.939,0,4.094-0.043,5.99-0.129
			c0.345,0.259,0.345,1.25,0,1.508l-0.905,0.13c-1.853,0.259-2.112,0.689-2.112,4.696v4.999c0,1.25,0.043,1.293,1.81,1.293h8.963
			c1.81,0,1.81-0.043,1.81-1.293v-4.999c0-4.007-0.215-4.352-2.197-4.653l-1.164-0.173c-0.345-0.258-0.345-1.249,0-1.508
			c2.37,0.086,4.481,0.129,6.55,0.129c2.111,0,4.093-0.043,6.076-0.129c0.345,0.259,0.345,1.25,0,1.508l-0.862,0.13
			c-1.982,0.302-2.241,0.689-2.241,4.696v16.03c0,4.008,0.259,4.31,2.241,4.653l1.034,0.173c0.345,0.259,0.345,1.25,0,1.508
			c-2.155-0.086-4.266-0.129-6.248-0.129c-2.155,0-4.266,0.043-6.334,0.129c-0.345-0.258-0.345-1.249,0-1.508l0.948-0.129
			c1.982-0.259,2.197-0.689,2.197-4.697v-6.205c0-1.206,0-1.25-1.81-1.25H185.801z"/>
		<path fill="#808080" d="M223.122,182.467c-0.173,2.93,1.077,3.706,1.938,3.706c0.518,0,0.948-0.13,1.638-0.518
			c0.388,0.086,0.646,0.604,0.518,0.991c-0.518,0.689-2.543,2.327-4.999,2.327c-1.508,0-2.456-0.518-3.619-1.509
			c-0.302-0.258-0.475-0.345-0.689-0.345c-0.216,0-0.475,0.173-0.905,0.475c-0.775,0.56-2.068,1.379-3.663,1.379
			c-2.499,0-4.826-1.509-4.826-4.524c0-2.198,1.336-3.534,4.482-4.481c1.637-0.518,2.844-0.862,4.05-1.207
			c0.776-0.216,0.991-0.517,1.034-0.861c0.043-0.475,0.086-0.948,0.086-1.466c0-1.637-0.646-3.705-2.499-3.705
			c-1.034,0-1.938,0.603-2.24,2.456c-0.087,0.689-0.345,1.077-0.732,1.379c-0.646,0.474-2.327,0.991-3.103,0.991
			c-0.732,0-0.991-0.475-0.991-1.078c0-1.12,1.034-2.499,2.068-3.317c1.465-1.163,4.18-2.629,7.239-2.629
			c3.619,0,5.73,1.81,5.516,6.248L223.122,182.467z M217.951,181.347c0.043-0.689,0-0.819-0.302-0.776
			c-1.939,0.259-3.62,0.991-3.62,3.017c0,1.379,0.991,2.586,2.198,2.586c1.336,0,1.595-0.776,1.638-2.112L217.951,181.347z"/>
		<path fill="#808080" d="M235.448,183.371c0,3.017,0.172,3.404,1.594,3.534l0.819,0.086c0.345,0.259,0.345,1.25-0.043,1.508
			c-1.509-0.086-3.189-0.129-5.171-0.129c-1.939,0-3.749,0.043-5.171,0.129c-0.389-0.258-0.389-1.249-0.043-1.508l0.818-0.086
			c1.422-0.13,1.594-0.518,1.594-3.534v-6.506c0-1.724,0-2.241-0.818-2.758l-0.604-0.389c-0.301-0.258-0.301-1.033,0-1.292
			c2.025-0.561,5.085-1.724,6.378-2.499c0.345,0,0.604,0.129,0.775,0.388c-0.086,1.292-0.129,3.188-0.129,5.128V183.371z
			 M235.793,163.895c0,2.068-1.595,3.146-3.232,3.146c-1.896,0-3.016-1.293-3.016-3.06c0-1.896,1.508-3.146,3.231-3.146
			C234.586,160.835,235.793,162.171,235.793,163.895z"/>
		<path fill="#808080" d="M242.172,176.951c0-1.724,0-2.241-0.819-2.758l-0.604-0.388c-0.302-0.259-0.302-1.034,0-1.293
			c1.982-0.561,4.956-1.724,6.292-2.585c0.345,0,0.603,0.129,0.775,0.388c-0.086,0.861-0.173,1.465-0.173,1.853
			c0,0.302,0.087,0.431,0.432,0.518c1.163-0.733,2.413-2.155,4.223-2.155c1.163,0,2.37,0.905,2.37,2.543
			c0,1.981-1.379,2.801-2.758,2.801c-0.604,0-1.121-0.259-1.681-0.776c-0.991-0.818-1.379-0.861-1.638-0.861
			c-0.604,0-0.818,0.948-0.818,2.586v6.549c0,3.017,0.172,3.361,1.594,3.491l1.379,0.129c0.345,0.259,0.345,1.25-0.043,1.508
			c-2.068-0.086-3.792-0.129-5.817-0.129c-1.767,0-3.662,0.043-5.084,0.129c-0.388-0.258-0.388-1.249-0.044-1.508l0.819-0.086
			c1.422-0.13,1.595-0.518,1.595-3.534V176.951z"/>
		<path fill="#808080" d="M292.633,160.361c0,0.775,0.13,4.223,0.518,6.722c-0.172,0.518-1.336,0.689-1.638,0.302
			c-1.163-4.008-3.921-6.162-8.101-6.162c-4.783,0-9.911,4.094-9.911,12.669s4.955,13.186,10.126,13.186
			c5.215,0,7.627-3.749,8.791-6.679c0.345-0.345,1.379-0.216,1.638,0.302c-0.302,3.188-1.034,5.774-1.638,6.765
			c-2.327,0.646-5.387,1.595-8.748,1.595c-4.223,0-8.531-0.991-11.591-3.274c-3.103-2.37-5.473-5.947-5.473-11.29
			c0-5.257,2.241-8.963,5.214-11.419c3.06-2.543,7.455-3.836,11.937-3.836C288.152,159.24,291.341,160.275,292.633,160.361z"/>
		<path fill="#808080" d="M297.852,164.412c0-1.725,0-2.198-0.862-2.715l-0.732-0.432c-0.302-0.258-0.302-1.034,0-1.292
			c1.853-0.432,4.438-1.466,6.593-2.413c0.259,0,0.561,0.086,0.732,0.301c-0.086,1.768-0.129,3.577-0.129,6.292v19.218
			c0,3.017,0.172,3.361,1.681,3.534l0.732,0.086c0.345,0.259,0.345,1.25-0.043,1.508c-1.423-0.086-3.232-0.129-5.171-0.129
			c-1.854,0-3.663,0.043-5.171,0.129c-0.388-0.258-0.388-1.249-0.044-1.508l0.819-0.086c1.422-0.13,1.595-0.518,1.595-3.534V164.412
			z"/>
		<path fill="#808080" d="M315.778,183.371c0,3.017,0.172,3.404,1.594,3.534l0.819,0.086c0.345,0.259,0.345,1.25-0.043,1.508
			c-1.509-0.086-3.189-0.129-5.171-0.129c-1.939,0-3.749,0.043-5.171,0.129c-0.389-0.258-0.389-1.249-0.043-1.508l0.818-0.086
			c1.422-0.13,1.594-0.518,1.594-3.534v-6.506c0-1.724,0-2.241-0.818-2.758l-0.604-0.389c-0.301-0.258-0.301-1.033,0-1.292
			c2.025-0.561,5.085-1.724,6.378-2.499c0.345,0,0.604,0.129,0.775,0.388c-0.086,1.292-0.129,3.188-0.129,5.128V183.371z
			 M316.123,163.895c0,2.068-1.595,3.146-3.232,3.146c-1.896,0-3.016-1.293-3.016-3.06c0-1.896,1.508-3.146,3.231-3.146
			C314.916,160.835,316.123,162.171,316.123,163.895z"/>
		<path fill="#808080" d="M322.502,176.865c0-1.724,0-2.241-0.819-2.758l-0.604-0.389c-0.302-0.258-0.302-1.033,0-1.292
			c2.025-0.561,5.128-1.724,6.378-2.499c0.345,0,0.604,0.129,0.775,0.388c0,0.603-0.129,1.637-0.129,1.938
			c0,0.259,0.086,0.345,0.215,0.345c0.13,0,0.561-0.215,0.819-0.345c0.948-0.56,2.973-1.724,4.955-1.724
			c3.577,0,5.387,2.456,5.387,5.43v7.411c0,3.017,0.172,3.361,1.724,3.534l0.689,0.086c0.345,0.259,0.345,1.25-0.043,1.508
			c-1.336-0.086-3.146-0.129-5.215-0.129c-1.723,0-3.403,0.043-4.653,0.129c-0.388-0.258-0.388-1.249-0.043-1.508l0.775-0.129
			c0.991-0.173,1.163-0.475,1.163-2.845v-7.282c0-1.681-0.861-3.06-3.016-3.06c-1.207,0-2.068,0.561-2.413,1.034
			c-0.259,0.302-0.345,0.819-0.345,1.595v7.713c0,2.37,0.172,2.758,1.249,2.888l0.689,0.086c0.345,0.259,0.345,1.25-0.043,1.508
			c-1.336-0.086-2.715-0.129-4.783-0.129c-1.81,0-3.576,0.043-5.084,0.129c-0.388-0.258-0.388-1.249-0.044-1.508l0.689-0.086
			c1.552-0.173,1.725-0.518,1.725-3.534V176.865z"/>
		<path fill="#808080" d="M351.807,183.371c0,3.017,0.172,3.404,1.594,3.534l0.819,0.086c0.345,0.259,0.345,1.25-0.043,1.508
			c-1.509-0.086-3.189-0.129-5.171-0.129c-1.939,0-3.749,0.043-5.171,0.129c-0.388-0.258-0.388-1.249-0.044-1.508l0.819-0.086
			c1.422-0.13,1.595-0.518,1.595-3.534v-6.506c0-1.724,0-2.241-0.819-2.758l-0.604-0.389c-0.302-0.258-0.302-1.033,0-1.292
			c2.025-0.561,5.085-1.724,6.378-2.499c0.345,0,0.604,0.129,0.775,0.388c-0.086,1.292-0.129,3.188-0.129,5.128V183.371z
			 M352.151,163.895c0,2.068-1.595,3.146-3.232,3.146c-1.896,0-3.016-1.293-3.016-3.06c0-1.896,1.508-3.146,3.231-3.146
			C350.944,160.835,352.151,162.171,352.151,163.895z"/>
		<path fill="#808080" d="M371.543,171.263c0.561,0.475,0.905,1.077,0.905,2.241c0,1.293-0.604,2.456-1.12,2.456
			c-0.216,0-0.604-0.086-0.689-0.216c-1.207-1.724-2.888-3.231-4.438-3.231c-2.801,0-4.31,3.188-4.31,6.162
			c0,3.404,2.198,6.852,6.162,6.852c1.595,0,2.887-0.518,3.835-2.111c0.518-0.044,1.12,0.258,1.12,0.947
			c-0.947,2.155-3.533,4.611-7.627,4.611c-5.429,0-9.135-3.62-9.135-8.704c0-6.119,4.955-9.739,10.772-9.739
			C368.483,170.53,370.38,170.832,371.543,171.263z"/>
	</g>
</g>
</svg>
